<svg width="265" height="68" viewBox="0 0 265 68" fill="none" xmlns="http://www.w3.org/2000/svg">
<path d="M48.0489 35.296C48.4649 35.296 48.7849 35.488 49.0089 35.872C49.2649 36.256 49.3929 36.784 49.3929 37.456C49.3929 38.704 49.0889 39.696 48.4809 40.432C45.3129 44.304 41.9369 46.24 38.3529 46.24C35.2489 46.24 32.7689 45.04 30.9129 42.64C29.0569 40.24 28.1289 36.8 28.1289 32.32C28.1289 31.232 28.1769 30.144 28.2729 29.056C26.1609 29.44 23.8569 29.728 21.3609 29.92C19.6969 30.048 18.5609 30.128 17.9529 30.16C17.3129 33.424 16.4169 37.424 15.2649 42.16C14.5929 44.944 13.3129 46.336 11.4249 46.336C9.37688 46.336 8.35287 45.408 8.35287 43.552C8.35287 43.136 8.43288 42.56 8.59288 41.824C9.68088 37.44 10.5449 33.728 11.1849 30.688L8.88088 30.784C7.82488 30.784 7.05688 30.608 6.57688 30.256C6.09688 29.872 5.85688 29.264 5.85688 28.432C5.85688 27.376 6.16088 26.608 6.76888 26.128C7.37688 25.616 8.38488 25.328 9.79288 25.264L12.3369 25.168C13.1689 20.656 13.5849 17.216 13.5849 14.848C13.5849 13.344 13.3609 12.32 12.9129 11.776C12.4649 11.232 11.8729 10.96 11.1369 10.96C8.89688 10.96 6.36888 12.832 3.55288 16.576C3.13688 17.12 2.67288 17.392 2.16088 17.392C1.71288 17.392 1.32888 17.184 1.00887 16.768C0.688875 16.352 0.528875 15.824 0.528875 15.184C0.528875 14.192 0.928875 13.136 1.72888 12.016C3.13688 10.064 4.91288 8.464 7.05688 7.216C9.20088 5.936 11.3769 5.296 13.5849 5.296C15.6649 5.296 17.2649 6.016 18.3849 7.456C19.5369 8.864 20.1129 11.072 20.1129 14.08C20.1129 16.736 19.7289 20.336 18.9609 24.88L23.6649 24.64C25.6809 24.544 27.4089 24.384 28.8489 24.16C29.4249 20.64 30.3049 17.344 31.4889 14.272C32.6729 11.2 34.1449 8.704 35.9049 6.784C37.6649 4.864 39.6329 3.904 41.8089 3.904C43.4089 3.904 44.6729 4.544 45.6009 5.824C46.5289 7.072 46.9929 8.72 46.9929 10.768C46.9929 18.704 42.9449 24.208 34.8489 27.28C34.7529 28.56 34.7049 29.888 34.7049 31.264C34.7049 34.624 35.1209 37.008 35.9529 38.416C36.7849 39.824 37.9529 40.528 39.4569 40.528C40.7689 40.528 41.9689 40.192 43.0569 39.52C44.1449 38.816 45.3769 37.632 46.7529 35.968C47.1369 35.52 47.5689 35.296 48.0489 35.296ZM41.5689 8.08C40.8649 8.08 40.1129 8.72 39.3129 10C38.5449 11.28 37.8089 13.024 37.1049 15.232C36.4009 17.44 35.8409 19.856 35.4249 22.48C37.9849 21.424 39.8729 19.92 41.0889 17.968C42.3049 16.016 42.9129 13.504 42.9129 10.432C42.9129 9.696 42.7849 9.12 42.5289 8.704C42.2729 8.288 41.9529 8.08 41.5689 8.08ZM220.605 35.296C221.021 35.296 221.341 35.488 221.565 35.872C221.821 36.256 221.949 36.784 221.949 37.456C221.949 38.704 221.645 39.696 221.037 40.432C219.245 42.576 217.501 44.08 215.805 44.944C214.141 45.808 212.125 46.24 209.757 46.24C208.093 46.24 206.557 46.032 205.149 45.616C203.741 45.2 202.029 44.576 200.013 43.744C198.189 42.944 196.429 42.288 194.733 41.776C193.101 44.752 190.653 46.24 187.389 46.24C185.597 46.24 184.173 45.84 183.117 45.04C182.029 44.208 181.485 43.152 181.485 41.872C181.485 40.304 182.237 39.008 183.741 37.984C185.245 36.928 187.245 36.4 189.741 36.4H190.365L191.229 22.432C191.421 19.232 191.997 16.592 192.957 14.512C193.917 12.432 195.245 10.656 196.941 9.184C198.413 7.904 200.093 6.944 201.981 6.304C203.869 5.632 205.869 5.296 207.981 5.296C211.437 5.296 214.093 6.192 215.949 7.984C217.805 9.776 218.733 12.112 218.733 14.992C218.733 16.944 218.381 18.528 217.677 19.744C216.973 20.928 215.997 21.52 214.749 21.52C213.853 21.52 213.149 21.312 212.637 20.896C212.125 20.448 211.869 19.824 211.869 19.024C211.869 18.736 211.933 18.208 212.061 17.44C212.253 16.544 212.349 15.744 212.349 15.04C212.349 13.696 211.949 12.64 211.149 11.872C210.381 11.072 209.197 10.672 207.597 10.672C204.781 10.672 202.605 11.6 201.069 13.456C199.533 15.28 198.557 18.16 198.141 22.096L197.037 32.992C196.877 34.528 196.669 35.856 196.413 36.976C198.461 37.328 201.021 37.888 204.093 38.656C205.885 39.104 207.261 39.424 208.221 39.616C209.181 39.808 210.029 39.904 210.765 39.904C212.621 39.904 214.205 39.6 215.517 38.992C216.861 38.352 218.125 37.344 219.309 35.968C219.693 35.52 220.125 35.296 220.605 35.296Z" fill="#459CFF"/>
<path d="M73.1495 35.296C73.5655 35.296 73.8855 35.488 74.1095 35.872C74.3655 36.256 74.4935 36.784 74.4935 37.456C74.4935 38.736 74.1895 39.728 73.5815 40.432C72.3975 41.872 70.7175 43.2 68.5415 44.416C66.3975 45.632 64.0935 46.24 61.6295 46.24C58.2695 46.24 55.6615 45.328 53.8055 43.504C51.9495 41.68 51.0215 39.184 51.0215 36.016C51.0215 33.808 51.4855 31.76 52.4135 29.872C53.3415 27.952 54.6215 26.432 56.2535 25.312C57.9175 24.192 59.7895 23.632 61.8695 23.632C63.7255 23.632 65.2135 24.192 66.3335 25.312C67.4535 26.4 68.0135 27.888 68.0135 29.776C68.0135 31.984 67.2135 33.888 65.6135 35.488C64.0455 37.056 61.3735 38.304 57.5975 39.232C58.3975 40.704 59.9175 41.44 62.1575 41.44C63.5975 41.44 65.2295 40.944 67.0535 39.952C68.9095 38.928 70.5095 37.6 71.8535 35.968C72.2375 35.52 72.6695 35.296 73.1495 35.296ZM61.0535 28.336C59.8695 28.336 58.8615 29.024 58.0295 30.4C57.2295 31.776 56.8295 33.44 56.8295 35.392V35.488C58.7175 35.04 60.2055 34.368 61.2935 33.472C62.3815 32.576 62.9255 31.536 62.9255 30.352C62.9255 29.744 62.7495 29.264 62.3975 28.912C62.0775 28.528 61.6295 28.336 61.0535 28.336ZM76.2549 46.24C74.2709 46.24 72.6869 45.52 71.5029 44.08C70.3189 42.64 69.7269 40.752 69.7269 38.416C69.7269 35.856 70.3189 33.44 71.5029 31.168C72.6869 28.864 74.2549 27.024 76.2069 25.648C78.1909 24.24 80.2869 23.536 82.4949 23.536C83.1989 23.536 83.6629 23.68 83.8869 23.968C84.1429 24.224 84.3509 24.704 84.5109 25.408C85.1829 25.28 85.8869 25.216 86.6229 25.216C88.1909 25.216 88.9749 25.776 88.9749 26.896C88.9749 27.568 88.7349 29.168 88.2549 31.696C87.5189 35.376 87.1509 37.936 87.1509 39.376C87.1509 39.856 87.2629 40.24 87.4869 40.528C87.7429 40.816 88.0629 40.96 88.4469 40.96C89.0549 40.96 89.7909 40.576 90.6549 39.808C91.5189 39.008 92.6869 37.728 94.1589 35.968C94.5429 35.52 94.9749 35.296 95.4549 35.296C95.8709 35.296 96.1909 35.488 96.4149 35.872C96.6709 36.256 96.7989 36.784 96.7989 37.456C96.7989 38.736 96.4949 39.728 95.8869 40.432C94.5749 42.064 93.1829 43.44 91.7109 44.56C90.2389 45.68 88.8149 46.24 87.4389 46.24C86.3829 46.24 85.4069 45.888 84.5109 45.184C83.6469 44.448 82.9909 43.456 82.5429 42.208C80.8789 44.896 78.7829 46.24 76.2549 46.24ZM77.9829 41.392C78.6869 41.392 79.3589 40.976 79.9989 40.144C80.6389 39.312 81.1029 38.208 81.3909 36.832L83.1669 28C81.8229 28.032 80.5749 28.544 79.4229 29.536C78.3029 30.496 77.4069 31.776 76.7349 33.376C76.0629 34.976 75.7269 36.672 75.7269 38.464C75.7269 39.456 75.9189 40.192 76.3029 40.672C76.7189 41.152 77.2789 41.392 77.9829 41.392ZM111.09 35.296C111.506 35.296 111.826 35.488 112.05 35.872C112.306 36.256 112.434 36.784 112.434 37.456C112.434 38.736 112.13 39.728 111.522 40.432C110.146 42.128 108.642 43.52 107.01 44.608C105.41 45.696 103.586 46.24 101.538 46.24C98.7218 46.24 96.6258 44.96 95.2498 42.4C93.9058 39.84 93.2338 36.528 93.2338 32.464C93.2338 28.56 93.7298 24.112 94.7218 19.12C95.7458 14.128 97.2338 9.84 99.1858 6.256C101.17 2.672 103.522 0.879997 106.242 0.879997C107.778 0.879997 108.978 1.6 109.842 3.04C110.738 4.448 111.186 6.48 111.186 9.136C111.186 12.944 110.13 17.36 108.018 22.384C105.906 27.408 103.042 32.384 99.4258 37.312C99.6498 38.624 100.018 39.568 100.53 40.144C101.042 40.688 101.714 40.96 102.546 40.96C103.858 40.96 105.01 40.592 106.002 39.856C106.994 39.088 108.258 37.792 109.794 35.968C110.178 35.52 110.61 35.296 111.09 35.296ZM105.186 5.632C104.45 5.632 103.618 6.96 102.69 9.616C101.762 12.272 100.946 15.568 100.242 19.504C99.5378 23.44 99.1538 27.216 99.0898 30.832C101.362 27.088 103.17 23.344 104.514 19.6C105.858 15.824 106.53 12.384 106.53 9.28C106.53 6.848 106.082 5.632 105.186 5.632ZM129.962 35.296C130.378 35.296 130.698 35.488 130.922 35.872C131.178 36.256 131.306 36.784 131.306 37.456C131.306 38.736 131.002 39.728 130.394 40.432C129.018 42.128 127.514 43.52 125.882 44.608C124.25 45.696 122.378 46.24 120.266 46.24C113.738 46.24 110.474 41.648 110.474 32.464C110.474 31.056 110.522 29.632 110.618 28.192H108.746C107.786 28.192 107.13 28.016 106.778 27.664C106.458 27.312 106.298 26.752 106.298 25.984C106.298 24.192 107.018 23.296 108.458 23.296H111.194C111.738 19.776 112.57 16.56 113.69 13.648C114.81 10.736 116.154 8.416 117.722 6.688C119.322 4.96 121.034 4.096 122.858 4.096C124.202 4.096 125.258 4.688 126.026 5.872C126.794 7.056 127.178 8.544 127.178 10.336C127.178 15.296 125.098 19.616 120.938 23.296H126.314C126.826 23.296 127.194 23.408 127.418 23.632C127.642 23.856 127.754 24.272 127.754 24.88C127.754 27.088 125.946 28.192 122.33 28.192H116.474C116.41 29.792 116.378 31.04 116.378 31.936C116.378 35.264 116.762 37.6 117.53 38.944C118.33 40.288 119.578 40.96 121.274 40.96C122.65 40.96 123.866 40.544 124.922 39.712C125.978 38.88 127.226 37.632 128.666 35.968C129.05 35.52 129.482 35.296 129.962 35.296ZM121.562 8.704C121.082 8.704 120.538 9.312 119.93 10.528C119.354 11.712 118.794 13.376 118.25 15.52C117.738 17.632 117.306 19.984 116.954 22.576C118.842 20.944 120.25 19.12 121.178 17.104C122.138 15.056 122.618 13.2 122.618 11.536C122.618 9.648 122.266 8.704 121.562 8.704ZM154.038 35.296C154.454 35.296 154.774 35.488 154.998 35.872C155.254 36.256 155.382 36.784 155.382 37.456C155.382 38.736 155.078 39.728 154.47 40.432C152.998 42.128 151.478 43.52 149.91 44.608C148.374 45.696 146.614 46.24 144.63 46.24C142.998 46.24 141.766 45.776 140.934 44.848C140.102 43.888 139.686 42.512 139.686 40.72C139.686 39.824 139.91 38.224 140.358 35.92C140.774 33.904 140.982 32.512 140.982 31.744C140.982 31.232 140.806 30.976 140.454 30.976C140.038 30.976 139.446 31.52 138.678 32.608C137.91 33.664 137.142 35.072 136.374 36.832C135.606 38.592 134.982 40.448 134.502 42.4C133.894 44.96 132.39 46.24 129.99 46.24C129.03 46.24 128.39 45.904 128.07 45.232C127.782 44.528 127.638 43.28 127.638 41.488C127.638 40.464 127.654 39.648 127.686 39.04L127.734 35.2C127.734 30.272 128.23 25.136 129.222 19.792C130.246 14.448 131.734 9.968 133.686 6.352C135.67 2.704 138.038 0.879997 140.79 0.879997C142.262 0.879997 143.446 1.52 144.342 2.8C145.27 4.048 145.734 5.68 145.734 7.696C145.734 10.928 144.79 14.288 142.902 17.776C141.014 21.232 137.942 25.28 133.686 29.92C133.59 31.584 133.542 33.296 133.542 35.056C134.598 32.336 135.766 30.128 137.046 28.432C138.358 26.704 139.638 25.472 140.886 24.736C142.166 24 143.334 23.632 144.39 23.632C146.47 23.632 147.51 24.672 147.51 26.752C147.51 28 147.158 30.256 146.454 33.52C145.846 36.304 145.542 38.144 145.542 39.04C145.542 40.32 146.006 40.96 146.934 40.96C147.574 40.96 148.326 40.576 149.19 39.808C150.086 39.008 151.27 37.728 152.742 35.968C153.126 35.52 153.558 35.296 154.038 35.296ZM139.782 5.632C139.206 5.632 138.566 6.464 137.862 8.128C137.158 9.76 136.47 11.984 135.798 14.8C135.158 17.584 134.63 20.624 134.214 23.92C136.198 21.584 137.83 19.04 139.11 16.288C140.422 13.536 141.078 11.04 141.078 8.8C141.078 7.776 140.966 6.992 140.742 6.448C140.518 5.904 140.198 5.632 139.782 5.632ZM168.292 23.632C169.028 23.632 169.54 23.728 169.828 23.92C170.116 24.112 170.26 24.432 170.26 24.88C170.26 25.648 169.844 28.384 169.012 33.088C168.276 37.6 167.844 40.272 167.716 41.104C166.532 49.328 164.9 55.84 162.82 60.64C160.74 65.44 157.972 67.84 154.516 67.84C152.884 67.84 151.556 67.328 150.532 66.304C149.508 65.312 148.995 64 148.995 62.368C148.995 60.864 149.332 59.328 150.004 57.76C150.708 56.192 151.988 54.384 153.844 52.336C155.732 50.32 158.388 48 161.812 45.376L161.956 44.272C162.18 43.088 162.436 41.392 162.724 39.184C162.084 41.488 161.188 43.248 160.036 44.464C158.884 45.648 157.668 46.24 156.388 46.24C154.948 46.24 153.764 45.584 152.836 44.272C151.94 42.928 151.492 41.264 151.492 39.28C151.492 36.88 151.652 34.688 151.972 32.704C152.292 30.688 152.82 28.56 153.556 26.32C153.876 25.36 154.324 24.672 154.9 24.256C155.476 23.84 156.388 23.632 157.636 23.632C158.34 23.632 158.82 23.744 159.076 23.968C159.364 24.192 159.508 24.528 159.508 24.976C159.508 25.232 159.332 26.096 158.98 27.568C158.66 28.752 158.404 29.824 158.212 30.784C157.956 32.096 157.732 33.36 157.54 34.576C157.348 35.76 157.252 36.736 157.252 37.504C157.252 38.72 157.588 39.328 158.26 39.328C158.74 39.328 159.332 38.848 160.036 37.888C160.772 36.928 161.54 35.472 162.34 33.52C163.172 31.568 163.972 29.168 164.74 26.32C164.996 25.36 165.38 24.672 165.892 24.256C166.436 23.84 167.236 23.632 168.292 23.632ZM155.044 63.184C155.844 63.184 156.74 62.256 157.732 60.4C158.724 58.544 159.716 55.456 160.708 51.136C158.244 53.216 156.452 55.104 155.332 56.8C154.244 58.528 153.7 60.032 153.7 61.312C153.7 61.856 153.796 62.304 153.988 62.656C154.212 63.008 154.564 63.184 155.044 63.184ZM224.342 20.464C222.998 20.464 221.99 20.16 221.318 19.552C220.646 18.912 220.31 18.032 220.31 16.912C220.31 15.792 220.742 14.864 221.606 14.128C222.502 13.36 223.606 12.976 224.918 12.976C226.102 12.976 227.062 13.264 227.798 13.84C228.534 14.416 228.902 15.232 228.902 16.288C228.902 17.568 228.486 18.592 227.654 19.36C226.822 20.096 225.718 20.464 224.342 20.464ZM223.958 46.24C221.878 46.24 220.358 45.504 219.398 44.032C218.47 42.56 218.006 40.608 218.006 38.176C218.006 36.736 218.182 34.896 218.534 32.656C218.918 30.384 219.398 28.272 219.974 26.32C220.262 25.296 220.646 24.592 221.126 24.208C221.606 23.824 222.374 23.632 223.43 23.632C225.062 23.632 225.878 24.176 225.878 25.264C225.878 26.064 225.574 27.92 224.966 30.832C224.198 34.352 223.814 36.736 223.814 37.984C223.814 38.944 223.942 39.68 224.198 40.192C224.454 40.704 224.886 40.96 225.494 40.96C226.07 40.96 226.79 40.56 227.654 39.76C228.518 38.96 229.67 37.696 231.11 35.968C231.494 35.52 231.926 35.296 232.406 35.296C232.822 35.296 233.142 35.488 233.366 35.872C233.622 36.256 233.75 36.784 233.75 37.456C233.75 38.736 233.446 39.728 232.838 40.432C229.67 44.304 226.71 46.24 223.958 46.24ZM248.55 32.56C249.446 32.56 249.894 33.232 249.894 34.576C249.894 37.104 247.91 38.368 243.942 38.368C243.174 38.368 242.07 38.224 240.63 37.936C241.046 39.92 241.382 42.128 241.638 44.56C241.926 46.96 242.07 48.944 242.07 50.512C242.07 53.968 241.51 56.608 240.39 58.432C239.27 60.256 237.798 61.168 235.974 61.168C233.67 61.168 232.022 59.536 231.03 56.272C230.07 53.008 229.59 48.08 229.59 41.488C229.59 35.344 230.246 29.12 231.558 22.816C232.902 16.48 234.726 11.248 237.03 7.12C239.366 2.96 241.926 0.879997 244.71 0.879997C246.214 0.879997 247.382 1.552 248.214 2.896C249.078 4.24 249.51 6.048 249.51 8.32C249.51 15.84 245.014 24.032 236.022 32.896C235.702 36.032 235.542 38.784 235.542 41.152C235.542 44.448 235.654 47.824 235.878 51.28C236.102 54.768 236.47 56.512 236.982 56.512C237.942 56.512 238.422 54.848 238.422 51.52C238.422 49.024 238.246 46.608 237.894 44.272C237.574 41.936 237.126 39.472 236.55 36.88C236.518 36.464 236.646 35.936 236.934 35.296C237.254 34.656 237.638 34.096 238.086 33.616C238.534 33.136 238.934 32.896 239.286 32.896C239.926 32.896 240.694 32.928 241.59 32.992C241.878 33.024 242.214 33.04 242.598 33.04C243.878 33.04 245.302 32.928 246.87 32.704C247.126 32.672 247.398 32.64 247.686 32.608C247.974 32.576 248.262 32.56 248.55 32.56ZM243.702 5.632C243.126 5.632 242.406 6.608 241.542 8.56C240.71 10.512 239.878 13.104 239.046 16.336C238.214 19.536 237.494 22.928 236.886 26.512C239.446 23.6 241.414 20.576 242.79 17.44C244.166 14.272 244.87 11.312 244.902 8.56C244.902 6.608 244.502 5.632 243.702 5.632ZM263.457 36.736C263.873 36.736 264.193 36.928 264.417 37.312C264.673 37.696 264.801 38.224 264.801 38.896C264.801 40.048 264.529 41.04 263.985 41.872C263.089 43.248 261.905 44.32 260.433 45.088C258.993 45.856 257.265 46.24 255.249 46.24C252.177 46.24 249.793 45.328 248.097 43.504C246.401 41.648 245.553 39.152 245.553 36.016C245.553 33.808 246.017 31.76 246.945 29.872C247.873 27.952 249.153 26.432 250.785 25.312C252.449 24.192 254.321 23.632 256.401 23.632C258.257 23.632 259.745 24.192 260.865 25.312C261.985 26.4 262.545 27.888 262.545 29.776C262.545 31.984 261.745 33.888 260.145 35.488C258.577 37.056 255.889 38.304 252.081 39.232C252.849 40.704 254.145 41.44 255.969 41.44C257.281 41.44 258.353 41.136 259.185 40.528C260.049 39.92 261.041 38.896 262.161 37.456C262.545 36.976 262.977 36.736 263.457 36.736ZM255.585 28.336C254.401 28.336 253.393 29.024 252.561 30.4C251.761 31.776 251.361 33.44 251.361 35.392V35.488C253.249 35.04 254.737 34.368 255.825 33.472C256.913 32.576 257.457 31.536 257.457 30.352C257.457 29.744 257.281 29.264 256.929 28.912C256.609 28.528 256.161 28.336 255.585 28.336Z" fill="#44403C"/>
</svg>
